<?xml version="1.0" encoding="UTF-8"?>
<!DOCTYPE svg PUBLIC "-//W3C//DTD SVG 1.0//EN" "http://www.w3.org/TR/2001/REC-SVG-20010904/DTD/svg10.dtd">
<!-- Creator: CorelDRAW -->
<svg xmlns="http://www.w3.org/2000/svg" xml:space="preserve" width="14mm" height="14mm" version="1.0" style="shape-rendering:geometricPrecision; text-rendering:geometricPrecision; image-rendering:optimizeQuality; fill-rule:evenodd; clip-rule:evenodd"
viewBox="0 0 1400 1400"
 xmlns:xlink="http://www.w3.org/1999/xlink"
 xmlns:xodm="http://www.corel.com/coreldraw/odm/2003">
 <defs>
  <style type="text/css">
   <![CDATA[
    .fil1 {fill:url(#id0);fill-rule:nonzero}
    .fil2 {fill:url(#id1);fill-rule:nonzero}
    .fil0 {fill:url(#id2);fill-rule:nonzero}
   ]]>
  </style>
  <linearGradient id="id0" gradientUnits="userSpaceOnUse" x1="795.12" y1="112.04" x2="821.24" y2="478.26">
   <stop offset="0" style="stop-opacity:1; stop-color:#C5E6F3"/>
   <stop offset="1" style="stop-opacity:1; stop-color:#F7C1FD"/>
  </linearGradient>
  <linearGradient id="id1" gradientUnits="userSpaceOnUse" xlink:href="#id0" x1="727.84" y1="612.56" x2="794.16" y2="1049">
  </linearGradient>
  <linearGradient id="id2" gradientUnits="userSpaceOnUse" xlink:href="#id0" x1="758.81" y1="432.83" x2="855.75" y2="1132.77">
  </linearGradient>
 </defs>
 <g id="Layer_x0020_1">
  <metadata id="CorelCorpID_0Corel-Layer"/>
  <g id="_2201562574880">
   <path class="fil0" d="M1005.21 727.11c-2.8,77.1 -0.44,158.48 -0.44,236.07 0,139.62 18.27,137.05 -66.44,169.51 -125.19,47.97 -261.42,61.35 -399.5,26.71 -30.96,-7.77 -60.91,-17.8 -90.62,-29.63 -34.39,-13.69 -57.81,-16.86 -59.86,-55.6 -4.73,-89.38 0.36,-252.47 -0.01,-356.47 -0.47,-131.99 99.92,-12.49 250.43,-28.61l-1.21 -99.85c-106.93,-21.9 -208.85,-10.93 -339.92,-88.24 -53.24,-31.4 -59.74,-53.87 -83.45,-58.38l-0.21 607.16c0,109.17 84.1,155.57 173.89,188.59 241.57,88.82 791.33,67.37 791.35,-188.59l-0.38 -606.71c-29.47,5.8 -40.62,45.28 -111.82,71.89 -1.38,46.66 -1.06,93.79 -1.9,140.55 -1.04,57.46 -10.99,60.78 -59.91,71.6z"/>
   <path class="fil1" d="M606.87 240.25c112.66,-12.78 270.76,-2.57 358.56,45.1 63.63,34.55 53.1,77.89 -10.77,108.39 -46.77,22.34 -110.09,34.44 -166.69,39.87 -275.35,26.44 -514.41,-72.78 -350.73,-153.13 50.25,-24.67 107.82,-33.22 169.63,-40.23zm-15.12 -115.83c-115.08,11.18 -307.68,53.53 -363.78,158.4 -50.16,93.79 40.95,170.9 120.11,206.29 41.35,18.49 82.9,32.08 130.68,42.61 390.52,86.01 827.47,-83.28 668.74,-274.3 -96.04,-115.58 -359.62,-152.07 -555.75,-133z"/>
   <path class="fil2" d="M423.16 1078.64c41.36,37.26 201.93,66.9 273.71,67.03 106.75,0.18 188.43,-27.08 272.72,-63.56 5.3,-55.07 6.2,-436.85 -7.39,-461.65 -34.73,-15.47 -24.14,41.42 -24.1,68.49 0.16,103.56 17.93,212.25 -62.49,231.8 -117.79,28.63 -99.28,-130.5 -99.32,-193.31 -0.04,-67.22 8.52,-74.36 -17.79,-77.12 -13.39,49.51 13.79,110.08 -32.34,135.54 -70.58,38.96 -91.91,-58.7 -92.09,-59.02 -34.31,-6.66 -74.57,-7.67 -110.38,-14.11 -34.58,-6.22 -68.09,-16.83 -101.15,-22.41l0.62 388.32z"/>
  </g>
 </g>
</svg>
